<svg width="25" height="25" viewBox="0 0 25 25" fill="none" xmlns="http://www.w3.org/2000/svg">
<path d="M12.5 25C19.4036 25 25 19.4036 25 12.5C25 5.59644 19.4036 0 12.5 0C5.59644 0 0 5.59644 0 12.5C0 19.4036 5.59644 25 12.5 25Z" fill="url(#paint0_radial)"/>
<path d="M17.0291 10.8104C17.0291 8.30908 15.0392 6.28149 12.5001 6.28149C10.0099 6.28149 7.97124 8.30908 7.97124 10.8104C7.97124 10.8916 7.97344 10.9725 7.97769 11.0527L7.97119 11.0543C7.97119 12.3085 9.01636 14.1663 9.43442 14.863C9.85249 15.5597 10.2009 17.3828 10.2009 17.3828H11.465H12.3608H12.5001H14.8342C14.8342 17.3828 15.1478 15.5597 15.5658 14.8631C15.9839 14.1663 17.029 12.3143 17.029 11.0601L17.0225 11.0556C17.0268 10.9753 17.0291 10.8917 17.0291 10.8104Z" fill="#F4C342"/>
<path d="M17.029 10.8104C17.029 8.30908 15.0391 6.28149 12.5 6.28149V17.3828H14.834C14.834 17.3828 15.1477 15.5597 15.5657 14.8631C15.9837 14.1663 17.0289 12.3143 17.0289 11.0601L17.0224 11.0556C17.0267 10.9753 17.029 10.8917 17.029 10.8104Z" fill="#F89B36"/>
<path d="M13.9164 17.5863C13.8105 17.5863 13.7209 17.5005 13.7209 17.3947V15.0606C13.7209 14.9371 13.7576 14.7933 13.8098 14.6813L14.2479 13.7695H13.7241C13.6966 13.7695 13.642 13.7672 13.6282 13.7909L13.2573 14.4127C13.1974 14.5161 13.1028 14.5644 12.9995 14.5594C12.8958 14.5547 12.8073 14.4856 12.757 14.3771L12.499 13.819L12.2437 14.3732C12.1936 14.4819 12.1053 14.5466 12.0014 14.5514C11.897 14.556 11.8037 14.4996 11.7435 14.3961L11.3727 13.7911C11.359 13.7673 11.3043 13.7695 11.2768 13.7695H10.7512L11.1878 14.6818C11.2394 14.7939 11.2795 14.9374 11.2795 15.0607V17.3948C11.2795 17.5005 11.2145 17.5864 11.1086 17.5864C11.0028 17.5864 10.9377 17.5005 10.9377 17.3948V15.0607C10.9377 14.9926 10.8888 14.87 10.8603 14.8082L10.362 13.7486C10.315 13.6466 10.3142 13.5447 10.369 13.459C10.4239 13.3736 10.5143 13.3301 10.6265 13.3301H11.2767C11.4417 13.3301 11.6214 13.4279 11.7041 13.5705L11.9769 14.0375L12.2463 13.4505C12.3366 13.2542 12.3705 13.18 12.4982 13.18C12.6257 13.18 12.6597 13.2529 12.7505 13.4487L13.0231 14.036L13.2968 13.5704C13.3794 13.4279 13.5592 13.33 13.7241 13.33H14.3744C14.4869 13.33 14.5827 13.3735 14.6374 13.4593C14.6921 13.5453 14.6961 13.6499 14.6486 13.7519L14.1607 14.8108C14.132 14.8721 14.1115 14.9929 14.1115 15.0606V17.3947C14.1116 17.5005 14.0221 17.5863 13.9164 17.5863Z" fill="#EC7C2D"/>
<path d="M14.3743 13.3301H13.724C13.5591 13.3301 13.3794 13.4279 13.2967 13.5704L13.023 14.0387L12.7505 13.4497C12.6601 13.2551 12.6466 13.1802 12.5001 13.1794V13.8193L12.757 14.3729C12.8073 14.4814 12.8955 14.5462 12.9994 14.551C13.1026 14.5561 13.1973 14.4992 13.2573 14.3958L13.6281 13.7909C13.6419 13.7671 13.6965 13.7695 13.7241 13.7695H14.2479L13.8097 14.6813C13.7575 14.7933 13.7209 14.9371 13.7209 15.0606V17.3828H14.1115V15.0606C14.1115 14.9929 14.132 14.8708 14.1607 14.8095L14.6509 13.7491C14.6983 13.6471 14.6932 13.5453 14.6385 13.4593C14.5838 13.3736 14.4868 13.3301 14.3743 13.3301Z" fill="#D9521E"/>
<path d="M10.4097 17.1875C10.0265 17.1875 9.7168 17.4295 9.7168 17.8127V20.2515C9.7168 21.7843 10.9863 23.0385 12.5 23.0385V17.1875H10.4097Z" fill="#BDC3C7"/>
<path d="M14.5902 17.1875H12.5V23.0385C14.0625 23.0385 15.2832 21.7843 15.2832 20.2515V17.8127C15.2832 17.4295 14.9735 17.1875 14.5902 17.1875Z" fill="#94A5A6"/>
<path d="M15.6738 18.6141V18.0914C15.6738 17.9957 15.557 17.9199 15.4612 17.9199H12.5V18.7988H15.4612C15.557 18.7988 15.6738 18.7099 15.6738 18.6141Z" fill="#BDC3C7"/>
<path d="M9.53877 17.9199C9.44307 17.9199 9.375 17.9957 9.375 18.0914V18.6141C9.375 18.7099 9.44307 18.7988 9.53877 18.7988H12.5V17.9199H9.53877Z" fill="#ECF0F1"/>
<path d="M15.4612 20.4102C15.557 20.4102 15.6738 20.3124 15.6738 20.2166V19.6939C15.6738 19.5982 15.557 19.5312 15.4612 19.5312H12.5V20.4102H15.4612Z" fill="#BDC3C7"/>
<path d="M9.375 19.6939V20.2166C9.375 20.3124 9.44307 20.4102 9.53877 20.4102H12.5V19.5312H9.53877C9.44307 19.5313 9.375 19.5982 9.375 19.6939Z" fill="#ECF0F1"/>
<path d="M12.5244 4.53963C12.2358 4.53963 12.0117 4.30569 12.0117 4.01702V2.48416C12.0117 2.19558 12.2358 1.96155 12.5244 1.96155C12.8129 1.96155 13.0371 2.19558 13.0371 2.48416V4.01702C13.0371 4.30569 12.8129 4.53963 12.5244 4.53963Z" fill="#F4C342"/>
<path d="M12.5244 4.53963C12.2358 4.53963 12.0117 4.30569 12.0117 4.01702V2.48416C12.0117 2.19558 12.2358 1.96155 12.5244 1.96155C12.8129 1.96155 13.0371 2.19558 13.0371 2.48416V4.01702C13.0371 4.30569 12.8129 4.53963 12.5244 4.53963Z" fill="#F4C342"/>
<path d="M20.687 11.2305H19.1541C18.8656 11.2305 18.6315 11.0063 18.6315 10.7178C18.6315 10.4291 18.8656 10.2051 19.1541 10.2051H20.687C20.9756 10.2051 21.2095 10.4291 21.2095 10.7178C21.2095 11.0063 20.9756 11.2305 20.687 11.2305Z" fill="#F89B36"/>
<path d="M20.687 11.2305H19.1541C18.8656 11.2305 18.6315 11.0063 18.6315 10.7178C18.6315 10.4291 18.8656 10.2051 19.1541 10.2051H20.687C20.9756 10.2051 21.2095 10.4291 21.2095 10.7178C21.2095 11.0063 20.9756 11.2305 20.687 11.2305Z" fill="#F89B36"/>
<path d="M5.84606 11.2305H4.31321C4.02468 11.2305 3.79065 11.0063 3.79065 10.7178C3.79065 10.4291 4.02468 10.2051 4.31321 10.2051H5.84606C6.13464 10.2051 6.36872 10.4291 6.36872 10.7178C6.36872 11.0063 6.13464 11.2305 5.84606 11.2305Z" fill="#F4C342"/>
<path d="M7.79515 6.48854C7.66131 6.48854 7.52762 6.43752 7.42561 6.33546L6.34168 5.25163C6.13757 5.04752 6.13757 4.71661 6.34168 4.51251C6.54578 4.30841 6.87669 4.30841 7.08069 4.51251L8.16463 5.59645C8.36868 5.80045 8.36868 6.13136 8.16463 6.33546C8.06258 6.43752 7.92884 6.48854 7.79515 6.48854Z" fill="#F4C342"/>
<path d="M17.2051 6.48857C17.0715 6.48857 16.9378 6.43764 16.8357 6.33559C16.6316 6.13148 16.6316 5.80067 16.8357 5.59657L17.9195 4.51254C18.1236 4.30853 18.4544 4.30843 18.6586 4.51254C18.8626 4.71664 18.8626 5.04755 18.6586 5.25165L17.5747 6.33559C17.4727 6.43764 17.3389 6.48857 17.2051 6.48857Z" fill="#F89B36"/>
<path d="M17.2051 6.48857C17.0715 6.48857 16.9378 6.43764 16.8357 6.33559C16.6316 6.13148 16.6316 5.80067 16.8357 5.59657L17.9195 4.51254C18.1236 4.30853 18.4544 4.30843 18.6586 4.51254C18.8626 4.71664 18.8626 5.04755 18.6586 5.25165L17.5747 6.33559C17.4727 6.43764 17.3389 6.48857 17.2051 6.48857Z" fill="#F89B36"/>
<defs>
<radialGradient id="paint0_radial" cx="0" cy="0" r="1" gradientUnits="userSpaceOnUse" gradientTransform="translate(12.5 12.5) scale(12.5)">
<stop offset="0.0051" stop-color="#33495F"/>
<stop offset="1" stop-color="#2B3E51"/>
</radialGradient>
</defs>
</svg>
