<svg width="18" height="18" viewBox="0 0 18 18" fill="none" xmlns="http://www.w3.org/2000/svg">
<path d="M9.90011 12.6H8.1001V14.4H9.90011V12.6Z" fill="#FFB800"/>
<path d="M8.99998 0C4.02945 0 0 4.02945 0 8.99998C0 13.9705 4.02945 18 8.99998 18C13.9705 18 18 13.9705 18 8.99998C18 4.02945 13.9705 0 8.99998 0ZM8.99998 16.371C4.9291 16.371 1.62898 13.0709 1.62898 8.99998C1.62898 4.9291 4.9291 1.62898 8.99998 1.62898C13.0688 1.63392 16.366 4.93112 16.371 8.99998C16.371 13.0709 13.0709 16.371 8.99998 16.371Z" fill="#FFB800"/>
<path d="M12.5009 6.34499C12.038 4.41141 10.0952 3.21928 8.16162 3.68224C6.53601 4.07146 5.39218 5.52845 5.39994 7.2H7.19995C7.28446 6.2059 8.15883 5.4685 9.15294 5.553C10.147 5.6375 10.8844 6.51188 10.7999 7.50599C10.6161 8.40053 9.81359 9.03186 8.90095 8.99997C8.45857 8.99997 8.09994 9.35861 8.09994 9.80098V11.7H9.89995V10.674C11.8035 10.1831 12.9613 8.25612 12.5009 6.34499Z" fill="#FFB800"/>
</svg>
