<svg width="12" height="11" viewBox="0 0 12 11" fill="none" xmlns="http://www.w3.org/2000/svg">
<path d="M5.42653 5.46315L0.115032 10.332C-0.0325303 10.4673 -0.0325303 10.6864 0.115032 10.8217C0.18872 10.8894 0.28547 10.9231 0.382032 10.9231C0.478782 10.9231 0.575345 10.8894 0.649032 10.8217L6.00047 5.91621L11.3519 10.8217C11.4258 10.8894 11.5223 10.9231 11.6189 10.9231C11.7155 10.9231 11.8122 10.8894 11.8859 10.8217C12.0335 10.6864 12.0335 10.4673 11.8859 10.332L6.5746 5.46315L11.8895 0.59084C12.037 0.455574 12.037 0.236433 11.8895 0.101168C11.7419 -0.033926 11.5028 -0.033926 11.3555 0.101168L6.00066 5.01009L0.645282 0.10134C0.49772 -0.0337542 0.258845 -0.0337542 0.111282 0.10134C-0.0362803 0.236605 -0.0362803 0.455746 0.111282 0.591011L5.42653 5.46315Z" fill="#494949"/>
</svg>
